<?xml version="1.0" encoding="UTF-8" standalone="no"?>
<!-- Created with Inkscape (http://www.inkscape.org/) -->

<svg
 width="80.684845mm"
 height="85.128105mm"
 viewBox="0 0 285.89118 301.63502"
 id="svg4816"
 version="1.1">
 <defs
   id="defs4818" />
   <sodipodi:namedview
     id="base"
     pagecolor="#ffffff"
     bordercolor="#666666"
     borderopacity="1.0" />
     <metadata
       id="metadata4821">
       <rdf:RDF>
        <cc:Work
         rdf:about="">
         <dc:format>image/svg+xml</dc:format>
         <dc:type
           rdf:resource="http://purl.org/dc/dcmitype/StillImage" />
           <dc:title></dc:title>
         </cc:Work>
       </rdf:RDF>
     </metadata>
     <g
       inkscape:label="Capa 1"
       inkscape:groupmode="layer"
       id="layer1"
       transform="translate(-237.05439,-450.11613)">
       <path
         style="opacity:1;fill:#ffffff;fill-opacity:1;stroke:#000000;stroke-width:1.07051075;stroke-linejoin:round;stroke-miterlimit:4;stroke-dasharray:none;stroke-dashoffset:0;stroke-opacity:0"
         d="M 84.316406 31.681641 A 17.837441 19.608535 0 0 0 66.429688 51.179688 A 17.837441 19.608535 0 0 0 69.037109 61.470703 L 54.121094 61.470703 C 44.606114 61.470703 36.947266 69.131474 36.947266 78.646484 L 36.947266 236.08398 C 36.947266 245.599 44.606114 253.25977 54.121094 253.25977 L 219.43164 253.25977 C 228.94667 253.25977 236.60742 245.599 236.60742 236.08398 L 236.60742 78.646484 C 236.60742 69.131474 228.94667 61.470703 219.43164 61.470703 L 205.6875 61.470703 A 17.837441 19.608535 0 0 0 208.30273 51.515625 L 208.30469 51.289062 A 17.837441 19.608535 0 0 0 190.51758 31.681641 A 17.837441 19.608535 0 0 0 172.62891 51.179688 A 17.837441 19.608535 0 0 0 175.23633 61.470703 L 99.488281 61.470703 A 17.837441 19.608535 0 0 0 102.10352 51.515625 L 102.10547 51.289062 A 17.837441 19.608535 0 0 0 84.316406 31.681641 z M 69.119141 106.06836 L 204.41602 106.06836 C 207.58768 106.06836 210.14062 108.6213 210.14062 111.79297 L 210.14062 220.77734 C 210.14062 223.94901 207.58768 226.50195 204.41602 226.50195 L 69.119141 226.50195 C 65.947481 226.50195 63.392578 223.94901 63.392578 220.77734 L 63.392578 111.79297 C 63.392578 108.6213 65.947481 106.06836 69.119141 106.06836 z M 161.30859 123.81445 C 160.25595 123.81445 159.4082 124.6622 159.4082 125.71484 L 159.4082 161.88672 C 159.4082 162.93936 160.25595 163.78711 161.30859 163.78711 L 194.57422 163.78711 C 195.62686 163.78711 196.47461 162.93936 196.47461 161.88672 L 196.47461 125.71484 C 196.47461 124.6622 195.62686 123.81445 194.57422 123.81445 L 161.30859 123.81445 z M 78.152344 123.93555 C 77.099699 123.93555 76.251953 124.78329 76.251953 125.83594 L 76.251953 162.00781 C 76.251953 163.06046 77.099699 163.90625 78.152344 163.90625 L 111.41797 163.90625 C 112.47061 163.90625 113.31836 163.06046 113.31836 162.00781 L 113.31836 125.83594 C 113.31836 124.78329 112.47061 123.93555 111.41797 123.93555 L 78.152344 123.93555 z M 120.66016 123.93555 C 119.60751 123.93555 118.75977 124.78329 118.75977 125.83594 L 118.75977 162.00781 C 118.75977 163.06046 119.60751 163.90625 120.66016 163.90625 L 153.92773 163.90625 C 154.98038 163.90625 155.82812 163.06046 155.82812 162.00781 L 155.82812 125.83594 C 155.82812 124.78329 154.98038 123.93555 153.92773 123.93555 L 120.66016 123.93555 z M 78.152344 169.02148 C 77.099699 169.02148 76.251953 169.86728 76.251953 170.91992 L 76.251953 207.0918 C 76.251953 208.14444 77.099699 208.99219 78.152344 208.99219 L 111.41797 208.99219 C 112.47061 208.99219 113.31836 208.14444 113.31836 207.0918 L 113.31836 170.91992 C 113.31836 169.86728 112.47061 169.02148 111.41797 169.02148 L 78.152344 169.02148 z M 119.23047 169.02148 C 118.17782 169.02148 117.33008 169.86728 117.33008 170.91992 L 117.33008 207.0918 C 117.33008 208.14444 118.17782 208.99219 119.23047 208.99219 L 152.49609 208.99219 C 153.54874 208.99219 154.39648 208.14444 154.39648 207.0918 L 154.39648 170.91992 C 154.39648 169.86728 153.54874 169.02148 152.49609 169.02148 L 119.23047 169.02148 z M 161.30859 169.02148 C 160.25595 169.02148 159.4082 169.86728 159.4082 170.91992 L 159.4082 207.0918 C 159.4082 208.14444 160.25595 208.99219 161.30859 208.99219 L 194.57422 208.99219 C 195.62686 208.99219 196.47461 208.14444 196.47461 207.0918 L 196.47461 170.91992 C 196.47461 169.86728 195.62686 169.02148 194.57422 169.02148 L 161.30859 169.02148 z "
         transform="translate(237.05439,450.11613)"
         id="path4386" />
       </g>
     </svg>
