<?xml version="1.0" encoding="UTF-8" standalone="no"?>
<!-- Created with Inkscape (http://www.inkscape.org/) -->

<svg
   xmlns:dc="http://purl.org/dc/elements/1.1/"
   xmlns:cc="http://creativecommons.org/ns#"
   xmlns:rdf="http://www.w3.org/1999/02/22-rdf-syntax-ns#"
   xmlns:svg="http://www.w3.org/2000/svg"
   xmlns="http://www.w3.org/2000/svg"
   xmlns:sodipodi="http://sodipodi.sourceforge.net/DTD/sodipodi-0.dtd"
   xmlns:inkscape="http://www.inkscape.org/namespaces/inkscape"
   width="80.684845mm"
   height="85.128105mm"
   viewBox="0 0 285.89118 301.63502"
   id="svg4816"
   version="1.1"
   inkscape:version="0.91 r13725"
   sodipodi:docname="icono-3.svg">
  <defs
     id="defs4818" />
  <sodipodi:namedview
     id="base"
     pagecolor="#ffffff"
     bordercolor="#666666"
     borderopacity="1.0"
     inkscape:pageopacity="0.0"
     inkscape:pageshadow="2"
     inkscape:zoom="0.7"
     inkscape:cx="185.98888"
     inkscape:cy="92.342458"
     inkscape:document-units="px"
     inkscape:current-layer="layer1"
     showgrid="false"
     inkscape:showpageshadow="false"
     fit-margin-top="0"
     fit-margin-left="0"
     fit-margin-right="0"
     fit-margin-bottom="0"
     inkscape:window-width="1366"
     inkscape:window-height="717"
     inkscape:window-x="0"
     inkscape:window-y="0"
     inkscape:window-maximized="1" />
  <metadata
     id="metadata4821">
    <rdf:RDF>
      <cc:Work
         rdf:about="">
        <dc:format>image/svg+xml</dc:format>
        <dc:type
           rdf:resource="http://purl.org/dc/dcmitype/StillImage" />
        <dc:title></dc:title>
      </cc:Work>
    </rdf:RDF>
  </metadata>
  <g
     inkscape:label="Capa 1"
     inkscape:groupmode="layer"
     id="layer1"
     transform="translate(-237.05439,-450.11613)">
    <path
       style="fill:#ffffff;fill-opacity:1;fill-rule:evenodd;stroke:#000000;stroke-width:0.44827858px;stroke-linecap:butt;stroke-linejoin:miter;stroke-opacity:0"
       d="m 383.59992,494.54647 c -15.28205,-0.0771 -30.3568,1.50145 -45.39521,3.37346 -24.03122,10.25075 -40.43119,23.77182 -56.15128,37.58449 -10.13428,19.26448 -16.37217,41.63305 -21.24769,62.36325 a 16.528286,17.433946 0 0 0 -8.639,15.19771 16.528286,17.433946 0 0 0 16.38668,17.53277 16.528286,17.433946 0 0 0 16.66862,-17.23334 l 0.002,-0.2005 a 16.528286,17.433946 0 0 0 -6.9562,-14.19694 c 4.09104,-15.77634 8.35963,-31.6416 16.46549,-49.42535 12.90501,-11.80586 28.23932,-23.59244 51.16944,-35.32032 16.20003,-2.75363 36.03057,-3.43321 60.67957,-1.35885 26.3105,13.53496 40.19432,28.31278 54.79243,43.01898 9.54905,14.95311 13.62318,29.22215 16.22647,43.30704 a 16.528286,17.433946 0 0 0 -6.67429,13.87651 16.528286,17.433946 0 0 0 16.38669,17.53277 16.528286,17.433946 0 0 0 16.66861,-17.23334 l 0.002,-0.2005 a 16.528286,17.433946 0 0 0 -8.64864,-15.3194 l -6.33894,-33.3591 c -16.00756,-26.30267 -41.28631,-50.60148 -69.28368,-66.11321 -12.21662,-2.70481 -24.22753,-3.76614 -36.1136,-3.82613 z m -38.15009,42.76946 c -19.59044,9.8769 -34.13762,25.30096 -41.66014,48.4526 0,0 -11.87449,5.25607 -17.76129,4.80324 l -0.9053,42.85789 13.04562,7.12255 c 13.83648,34.01492 44.62475,62.64778 76.37547,77.89542 l 8.82984,-0.33971 c 34.23315,-10.40602 68.57743,-54.59363 71.20712,-75.2828 l 0.0166,-0.077 17.53455,-8.31592 -3.57748,-41.59623 -15.33167,-4.80323 c -15.24508,-37.269 -30.49051,-39.37552 -45.73578,-50.71681 l -62.03755,0 z m 12.74004,53.63757 -8.32552,27.21717 39.06416,-19.53251 c 5.02355,11.18801 11.30644,19.01726 18.89158,23.3744 l 34.58228,2.24139 c -6.40488,12.10335 -9.69013,24.83134 -11.84787,37.78411 l -38.16496,-1.78961 c -2.50781,-6.35947 -8.38595,-10.5131 -14.9158,-10.5398 -8.94123,-0.0267 -16.21724,7.58256 -16.26848,17.01357 -0.0511,9.43139 7.14247,17.12815 16.08375,17.20882 6.15576,0.0467 11.80626,-3.58564 14.58833,-9.37795 l 24.26832,0.29243 -37.1432,28.81766 c -22.87965,-12.47536 -44.52697,-27.76712 -61.4781,-53.79343 -5.32836,-13.44835 -6.12039,-26.89671 -6.40374,-40.34508 11.16953,-7.01238 26.50994,-13.26603 47.06925,-18.57117 z"
       id="path4469"
       inkscape:connector-curvature="0" />
  </g>
</svg>
