<?xml version="1.0" encoding="UTF-8" standalone="no"?>
<!-- Created with Inkscape (http://www.inkscape.org/) -->

<svg
   xmlns:dc="http://purl.org/dc/elements/1.1/"
   xmlns:cc="http://creativecommons.org/ns#"
   xmlns:rdf="http://www.w3.org/1999/02/22-rdf-syntax-ns#"
   xmlns:svg="http://www.w3.org/2000/svg"
   xmlns="http://www.w3.org/2000/svg"
   xmlns:sodipodi="http://sodipodi.sourceforge.net/DTD/sodipodi-0.dtd"
   xmlns:inkscape="http://www.inkscape.org/namespaces/inkscape"
   width="80.684845mm"
   height="85.128105mm"
   viewBox="0 0 285.89118 301.63502"
   id="svg4816"
   version="1.1"
   inkscape:version="0.91 r13725"
   sodipodi:docname="icono-6.svg">
  <defs
     id="defs4818" />
  <sodipodi:namedview
     id="base"
     pagecolor="#ffffff"
     bordercolor="#666666"
     borderopacity="1.0"
     inkscape:pageopacity="0.0"
     inkscape:pageshadow="2"
     inkscape:zoom="0.7"
     inkscape:cx="-33.296832"
     inkscape:cy="206.62817"
     inkscape:document-units="px"
     inkscape:current-layer="layer1"
     showgrid="false"
     inkscape:showpageshadow="false"
     fit-margin-top="0"
     fit-margin-left="0"
     fit-margin-right="0"
     fit-margin-bottom="0"
     inkscape:window-width="1366"
     inkscape:window-height="717"
     inkscape:window-x="0"
     inkscape:window-y="0"
     inkscape:window-maximized="1" />
  <metadata
     id="metadata4821">
    <rdf:RDF>
      <cc:Work
         rdf:about="">
        <dc:format>image/svg+xml</dc:format>
        <dc:type
           rdf:resource="http://purl.org/dc/dcmitype/StillImage" />
        <dc:title></dc:title>
      </cc:Work>
    </rdf:RDF>
  </metadata>
  <g
     inkscape:label="Capa 1"
     inkscape:groupmode="layer"
     id="layer1"
     transform="translate(-237.05439,-450.11613)">
    <path
       style="opacity:1;fill:#ffffff;fill-opacity:1;stroke:#000000;stroke-width:0.80702102;stroke-linejoin:round;stroke-miterlimit:4;stroke-dasharray:none;stroke-dashoffset:0;stroke-opacity:0"
       d="M 143.20312 26.974609 A 123.65815 119.93785 0 0 0 19.195312 146.22656 A 123.65815 119.93785 0 0 0 141.79102 266.8457 A 123.65815 119.93785 0 0 0 266.50195 148.28516 L 266.50977 146.9082 A 123.65815 119.93785 0 0 0 143.20312 26.974609 z M 143.3457 49.027344 A 101.02085 97.98161 0 0 1 244.08008 147.00391 L 244.07422 148.12891 A 101.02085 97.98161 0 0 1 142.19336 244.98438 A 101.02085 97.98161 0 0 1 42.041016 146.44727 A 101.02085 97.98161 0 0 1 143.3457 49.027344 z M 141.33594 71.009766 C 133.33016 71.009766 127.27539 77.25799 127.27539 85.654297 C 127.27539 94.245867 133.72073 100.10352 141.53125 100.10352 C 149.73229 100.10352 155.98047 94.050505 155.98047 85.263672 C 155.98047 77.257891 150.12277 71.009766 141.33594 71.009766 z M 143.48242 115.5293 L 115.95117 124.70703 L 115.95117 132.51758 L 128.83789 132.51758 L 128.83789 199.88281 L 126.10547 202.8125 L 115.56055 203.5918 L 115.56055 212.37891 L 166.71875 212.37891 L 166.71875 203.5918 L 155.78516 202.8125 L 152.85547 199.88281 L 152.85547 115.5293 L 143.48242 115.5293 z "
       transform="translate(237.05439,450.11613)"
       id="path4807" />
    <path
       id="path5638"
       transform="translate(237.05439,450.11613)"
       d="M 143.20312 26.974609 A 123.65815 119.93785 0 0 0 19.195312 146.22656 A 123.65815 119.93785 0 0 0 141.79102 266.8457 A 123.65815 119.93785 0 0 0 266.50195 148.28516 L 266.50977 146.9082 A 123.65815 119.93785 0 0 0 143.20312 26.974609 z M 143.3457 49.027344 A 101.02085 97.98161 0 0 1 244.08008 147.00391 L 244.07422 148.12891 A 101.02085 97.98161 0 0 1 142.19336 244.98438 A 101.02085 97.98161 0 0 1 42.041016 146.44727 A 101.02085 97.98161 0 0 1 143.3457 49.027344 z M 141.33594 71.009766 C 133.33016 71.009766 127.27539 77.25799 127.27539 85.654297 C 127.27539 94.245867 133.72073 100.10352 141.53125 100.10352 C 149.73229 100.10352 155.98047 94.050505 155.98047 85.263672 C 155.98047 77.257891 150.12277 71.009766 141.33594 71.009766 z M 143.48242 115.5293 L 115.95117 124.70703 L 115.95117 132.51758 L 128.83789 132.51758 L 128.83789 199.88281 L 126.10547 202.8125 L 115.56055 203.5918 L 115.56055 212.37891 L 166.71875 212.37891 L 166.71875 203.5918 L 155.78516 202.8125 L 152.85547 199.88281 L 152.85547 115.5293 L 143.48242 115.5293 z "
       style="opacity:1;fill:#ffffff;fill-opacity:1;stroke:#000000;stroke-width:0.80702102;stroke-linejoin:round;stroke-miterlimit:4;stroke-dasharray:none;stroke-dashoffset:0;stroke-opacity:0" />
  </g>
</svg>
