<svg version="1.1"
	 xmlns="http://www.w3.org/2000/svg" xmlns:xlink="http://www.w3.org/1999/xlink" xmlns:a="http://ns.adobe.com/AdobeSVGViewerExtensions/3.0/"
	 x="0px" y="0px" width="363.2px" height="385.3px" viewBox="0 0 363.2 385.3"
	 style="overflow:scroll;enable-background:new 0 0 363.2 385.3;" xml:space="preserve">
<style type="text/css">
	.st0{fill:#EA5918;}
</style>
<defs>
</defs>
<g>
	<path class="st0" d="M294.2,247.5c-22.2,0-41.9,10.6-54.6,26.9l-105.8-59.1c2.5-7.1,3.8-14.8,3.8-22.7c0-8-1.4-15.6-3.9-22.8
		l105.8-59c12.6,16.4,32.4,27,54.6,27c37.9,0,68.9-30.9,68.9-68.9S332.2,0,294.2,0s-68.9,30.9-68.9,68.9c0,8,1.4,15.7,3.9,22.8
		l-105.7,59c-12.6-16.5-32.4-27-54.6-27C31,123.7,0,154.6,0,192.6s31,68.9,69,68.9c22.2,0,42.1-10.6,54.7-27.1l105.8,59.1
		c-2.6,7.2-4,15-4,23c0,37.9,30.9,68.9,68.9,68.9s68.9-30.9,68.9-68.9S332.2,247.5,294.2,247.5L294.2,247.5z M294.2,21.7
		c26.1,0,47.3,21.2,47.3,47.3c0,26.1-21.2,47.3-47.3,47.3C268.2,116.2,247,95,247,69C247,42.9,268.2,21.7,294.2,21.7L294.2,21.7z
		 M69,239.8c-26.1,0-47.3-21.2-47.3-47.3c0-26.1,21.2-47.3,47.3-47.3c26.1,0,47.3,21.2,47.3,47.3C116.2,218.6,95,239.8,69,239.8
		L69,239.8z M294.2,363.6c-26.1,0-47.3-21.2-47.3-47.3c0-26.1,21.2-47.3,47.3-47.3c26.1,0,47.3,21.2,47.3,47.3
		C341.5,342.4,320.3,363.6,294.2,363.6L294.2,363.6z M294.2,363.6"/>
</g>
</svg>
