<svg version="1.1"
	xmlns="http://www.w3.org/2000/svg" xmlns:xlink="http://www.w3.org/1999/xlink" xmlns:a="http://ns.adobe.com/AdobeSVGViewerExtensions/3.0/"
	x="0px" y="0px" width="228px" height="60px" viewBox="0 0 870.4 222" style="enable-background:new 0 0 870.4 222;"
	xml:space="preserve">
	<style type="text/css">
		.st0{fill:#000;}
	</style>
	<defs>
	</defs>
	<g>
		<g id="XMLID_73_">
			<g id="XMLID_139_">
				<g id="XMLID_149_">
					<path id="XMLID_164_" class="st0" d="M144.9,130.6h78.9c-6.4-11.9-22.1-17.5-43-21.4c-11.4-2.2-14.4-4-14.4-6.9v-0.3
						c0-2.6,2.5-4.5,7.9-4.5c10,0,22.2,3.2,32.4,10.6l17.6-24.4c-12.5-9.9-27.9-14.8-48.8-14.8c-29.8,0-45.8,15.9-45.8,36.4v0.3
						C129.8,117.7,135.8,125.3,144.9,130.6z"/>
						<polygon id="XMLID_162_" class="st0" points="230.4,101.5 262.1,101.5 262.1,130.6 298.3,130.6 298.3,101.5 330,101.5 330,70.9 
							230.4,70.9 				"/>
							<polygon id="XMLID_160_" class="st0" points="426,70.9 385.6,70.9 409.6,130.6 446.7,130.6 				"/>
							<rect id="XMLID_158_" x="341.6" y="70.9" class="st0" width="36.1" height="59.6"/>
							<polygon id="XMLID_156_" class="st0" points="447.3,130.6 483.8,130.6 507.8,70.9 468,70.9 				"/>
							<polygon id="XMLID_154_" class="st0" points="638.6,117.8 676.3,70.9 634.3,70.9 603.6,111.3 603.6,70.9 567.5,70.9 
								567.5,130.6 646.6,130.6 				"/>
								<rect id="XMLID_152_" x="515.7" y="70.9" class="st0" width="36.1" height="59.6"/>
								<polygon id="XMLID_150_" class="st0" points="63.1,112.6 69.9,130.6 106.6,130.6 81.3,70.2 45.5,70.2 20.2,130.6 56.3,130.6 
									"/>
								</g>
								<path id="XMLID_140_" d="M429.4,179.7H464l16.2-40.1h-66.9L429.4,179.7z M652.3,139.6h-84.8v39.4h36.1v-23l9.3-11.3l21.1,34.3
									h43.1L652.3,139.6z M515.7,178.9h36.1v-39.4h-36.1V178.9z M341.6,178.9h36.1v-39.4h-36.1V178.9z M262.1,178.9h36.1v-39.4h-36.1
									V178.9z M16.5,139.6L0,178.9h38.6l5.6-14.5h37.8l5.7,14.5h39.2l-16.5-39.4H16.5z M171.5,139.6c1.2,0.3,2.5,0.5,3.7,0.8
									c11.6,2.3,15,4,15,7.1v0.3c0,2.9-2.8,4.6-9.3,4.6c-12.7,0-26.1-3.7-37.8-12.7l-19.3,23c13.7,12,33.5,18.2,55.4,18.2
									c29,0,47.7-13.9,47.7-36.6v-0.3c0-1.6-0.1-3.1-0.3-4.5H171.5z"/>
								</g>
								<g id="XMLID_136_">
									<rect id="XMLID_137_" x="2.1" y="207.9" class="st0" width="185.3" height="3.6"/>
								</g>
								<g id="XMLID_131_">
									<rect id="XMLID_134_" x="484.4" y="207.9" class="st0" width="196.2" height="3.6"/>
								</g>
								<g id="XMLID_74_">
									<g>
										<path id="XMLID_99_" d="M217.5,196.3c3.7,0,11.2,0.7,11.9,7.7h-5.5c-0.2-1.9-1.9-3.9-6.1-3.9c-3.4,0-5.7,1-5.7,3.3
											c0,5.8,18.1,0.2,18.1,10.6c0,6.3-6.5,7.9-11.7,7.9c-8.8,0-12.2-3.4-12.3-8.6h5.5c0.1,3.2,2.8,4.7,7,4.7c3.1,0,6-1,6-3.6
											c0-6-17.9-0.8-17.9-10.8C206.8,198.4,211.6,196.3,217.5,196.3z"/>
											<path id="XMLID_97_" d="M242,197h5.1v9.5h15.1V197h5.1v24.3h-5.1v-11h-15.1v11H242V197z"/>
											<path id="XMLID_95_" d="M280.9,197h5.1v24.3h-5.1V197z"/>
											<path id="XMLID_92_" d="M299.6,197h15c6,0,7.9,3.6,7.9,7.6c0,3.7-2.4,7.5-7.8,7.5h-10v9.3h-5.1V197z M304.7,208.2h8.2
												c2.9,0,4.5-0.8,4.5-3.7c0-3-2.1-3.7-4.1-3.7h-8.6V208.2z"/>
												<path id="XMLID_90_" d="M342.6,212L332,197h6.2l7,10.8l7-10.8h6.2L347.8,212v9.3h-5.1V212z"/>
												<path id="XMLID_87_" d="M374.9,197h6.1l10.8,24.3h-5.7l-2.6-6h-11.4l-2.5,6h-5.5L374.9,197z M382,211.4l-4.2-10.3l-4.2,10.3H382
													z"/>
													<path id="XMLID_84_" d="M402.6,197H418c6.2,0,8.2,2.8,8.2,6.6c0,3.2-1.7,5.1-4,5.9v0.1c2.9,0.6,3.5,3.1,3.5,6.6
														c0,1.2,0,3.9,1,5.2h-5.5c-0.4-0.7-0.6-1.9-0.6-3.7c0-3.4-0.5-5.9-4.2-5.9h-8.7v9.6h-5.1V197z M416.6,207.9
														c2.9,0,4.4-0.9,4.4-3.6c0-2.6-1.6-3.5-4.4-3.5h-8.8v7.1H416.6z"/>
														<path id="XMLID_79_" d="M439,197h13.1c9.5,0,11.9,5.5,11.9,12.4c0,5.2-2.4,11.9-10.7,11.9H439V197z M444.1,217.5h7.2
															c3.7,0,7.6-1.2,7.6-8.3c0-7.9-5-8.4-7.9-8.4h-6.9V217.5z"/>
														</g>
													</g>
												</g>
												<g id="XMLID_66_">
													<g id="XMLID_69_">
														<polygon id="XMLID_70_" class="st0" points="697.5,213.9 864.4,213.9 864.4,72.9 856.3,72.9 856.3,205.8 697.5,205.8 			"/>
													</g>
													<g id="XMLID_67_">
														
														<rect id="XMLID_68_" x="849.5" y="65.2" transform="matrix(-1 -5.624535e-11 5.624535e-11 -1 1719.917 139.8947)" class="st0" width="20.9" height="9.5"/>
													</g>
												</g>
												<path id="XMLID_63_" d="M766.3,57.7v139.8h37.3c5.6-43.4,43.5-84.3,43.5-84.3C826.7,82,766.3,57.7,766.3,57.7z"/>
												<path id="XMLID_62_" class="st0" d="M685.5,113.1c0,0,37.9,40.9,43.5,84.3h37.3V57.7C766.3,57.7,705.9,82,685.5,113.1z"/>
												<g id="XMLID_59_">
													<rect id="XMLID_61_" x="755.6" y="8.2" class="st0" width="20.5" height="26.1"/>
													<rect id="XMLID_60_" x="755.6" class="st0" width="20.5" height="5.6"/>
												</g>
												<path id="XMLID_54_" class="st0" d="M802.8,28.6l-27.7-4.9c-5.7-1-11.6-1-17.3,0l-27.7,4.9l-20,54.8c25.1-18.5,56.2-31,56.2-31h0
													c0,0,30.5,12.3,55.5,30.6L802.8,28.6z M753.6,45.1l-15.9,2.6V34.3h15.9V45.1z M773.8,45.1h-15.9V34.3h15.9V45.1z M794,47.7
													l-15.9-2.6V34.3H794V47.7z"/>
													<rect id="XMLID_2_" x="745.5" y="18.2" class="st0" width="40.1" height="7.9"/>
												</g>
											</svg>
